<?xml version="1.0" encoding="UTF-8"?>
<!-- Simple coffee cup SVG used as release icon (created for repository use) -->
<svg xmlns="http://www.w3.org/2000/svg" width="128" height="128" viewBox="0 0 64 64">
  <g fill="#000000">
    <path d="M48 16H12c-1.1 0-2 .9-2 2v6c0 7.7 6.3 14 14 14h6c7.7 0 14-6.3 14-14V18c0-1.1-.9-2-2-2z"/>
    <path d="M50 20c2.8 0 6 2 6 6s-3.2 6-6 6" fill="none" stroke="#000" stroke-width="2"/>
    <path d="M12 38h34v2c0 6.6-5.4 12-12 12H24c-6.6 0-12-5.4-12-12v-2z"/>
  </g>
</svg>
